# Blender 4.0.0
# www.blender.org
mtllib sa.mtl
o Cube
v 2.548792 0.072961 -2.548792
v 2.548792 -0.109097 -2.548792
v 2.548792 0.072961 2.548792
v 2.548792 -0.109097 2.548792
v -2.548792 0.072961 -2.548792
v -2.548792 -0.109097 -2.548792
v -2.548792 0.072961 2.548792
v -2.548792 -0.109097 2.548792
vn -0.0000 1.0000 -0.0000
vn -0.0000 -0.0000 1.0000
vn -1.0000 -0.0000 -0.0000
vn -0.0000 -1.0000 -0.0000
vn 1.0000 -0.0000 -0.0000
vn -0.0000 -0.0000 -1.0000
vt -3.219331 -3.219331
vt 4.219331 -3.219331
vt 4.219331 4.219331
vt -3.219331 4.219331
s 0
usemtl Material
f 1/1/1 5/2/1 7/3/1 3/4/1
f 4/1/2 3/2/2 7/3/2 8/4/2
f 8/1/3 7/2/3 5/3/3 6/4/3
f 6/1/4 2/2/4 4/3/4 8/4/4
f 2/1/5 1/2/5 3/3/5 4/4/5
f 6/1/6 5/2/6 1/3/6 2/4/6
o Cube.002
v -2.754067 -0.037663 -2.428350
v -2.754067 4.440093 -2.428350
v -2.754067 -0.037663 -2.734016
v -2.754067 4.440093 -2.734016
v 2.872707 -0.037663 -2.428350
v 2.872707 4.440093 -2.428350
v 2.872707 -0.037663 -2.734016
v 2.872707 4.440093 -2.734016
vn -1.0000 -0.0000 -0.0000
vn -0.0000 -0.0000 -1.0000
vn 1.0000 -0.0000 -0.0000
vn -0.0000 -0.0000 1.0000
vn -0.0000 -1.0000 -0.0000
vn -0.0000 1.0000 -0.0000
vt -2.628048 3.628049
vt -2.628049 -2.628048
vt 3.628049 -2.628049
vt 3.628049 3.628049
s 0
usemtl Material.002
f 9/5/7 10/6/7 12/7/7 11/8/7
f 11/5/8 12/6/8 16/7/8 15/8/8
f 15/5/9 16/6/9 14/7/9 13/8/9
f 13/5/10 14/6/10 10/7/10 9/8/10
f 11/5/11 15/6/11 13/7/11 9/8/11
f 16/5/12 12/6/12 10/7/12 14/8/12
o Cube.003
v -2.564121 -0.037663 2.426306
v -2.564121 4.440093 2.426306
v -2.869788 -0.037663 2.426306
v -2.869788 4.440093 2.426306
v -2.564122 -0.037663 -2.614309
v -2.564122 4.440093 -2.614309
v -2.869789 -0.037663 -2.614309
v -2.869789 4.440093 -2.614309
vn -0.0000 -0.0000 1.0000
vn -1.0000 -0.0000 -0.0000
vn -0.0000 -0.0000 -1.0000
vn 1.0000 -0.0000 -0.0000
vn -0.0000 -1.0000 -0.0000
vn -0.0000 1.0000 -0.0000
vt -2.628048 3.628049
vt -2.628049 -2.628048
vt 3.628049 -2.628049
vt 3.628049 3.628049
s 0
usemtl Material.003
f 17/9/13 18/10/13 20/11/13 19/12/13
f 19/9/14 20/10/14 24/11/14 23/12/14
f 23/9/15 24/10/15 22/11/15 21/12/15
f 21/9/16 22/10/16 18/11/16 17/12/16
f 19/9/17 23/10/17 21/11/17 17/12/17
f 24/9/18 20/10/18 18/11/18 22/12/18
o Cube.004
v 2.855909 -0.037663 2.426306
v 2.855909 4.440093 2.426306
v 2.550242 -0.037663 2.426306
v 2.550242 4.440093 2.426306
v 2.855909 -0.037663 -2.614309
v 2.855909 4.440093 -2.614309
v 2.550242 -0.037663 -2.614309
v 2.550242 4.440093 -2.614309
vn -0.0000 -0.0000 1.0000
vn -1.0000 -0.0000 -0.0000
vn -0.0000 -0.0000 -1.0000
vn 1.0000 -0.0000 -0.0000
vn -0.0000 -1.0000 -0.0000
vn -0.0000 1.0000 -0.0000
vt -2.628048 3.628049
vt -2.628049 -2.628048
vt 3.628049 -2.628049
vt 3.628049 3.628049
s 0
usemtl Material.004
f 25/13/19 26/14/19 28/15/19 27/16/19
f 27/13/20 28/14/20 32/15/20 31/16/20
f 31/13/21 32/14/21 30/15/21 29/16/21
f 29/13/22 30/14/22 26/15/22 25/16/22
f 27/13/23 31/14/23 29/15/23 25/16/23
f 32/13/24 28/14/24 26/15/24 30/16/24
o Cube.001
v -2.754067 -0.037663 2.661469
v -2.754067 4.440093 2.661469
v -2.754067 -0.037663 2.355803
v -2.754067 4.440093 2.355803
v 2.872707 -0.037663 2.661469
v 2.872707 4.440093 2.661469
v 2.872707 -0.037663 2.355803
v 2.872707 4.440093 2.355803
vn -1.0000 -0.0000 -0.0000
vn -0.0000 -0.0000 -1.0000
vn 1.0000 -0.0000 -0.0000
vn -0.0000 -0.0000 1.0000
vn -0.0000 -1.0000 -0.0000
vn -0.0000 1.0000 -0.0000
vt -2.628048 3.628049
vt -2.628049 -2.628048
vt 3.628049 -2.628049
vt 3.628049 3.628049
s 0
usemtl Material.005
f 33/17/25 34/18/25 36/19/25 35/20/25
f 35/17/26 36/18/26 40/19/26 39/20/26
f 39/17/27 40/18/27 38/19/27 37/20/27
f 37/17/28 38/18/28 34/19/28 33/20/28
f 35/17/29 39/18/29 37/19/29 33/20/29
f 40/17/30 36/18/30 34/19/30 38/20/30
o Cube.005
v -0.736344 0.069576 0.832054
v -0.736344 0.862915 0.832054
v -0.736344 0.069576 -1.167946
v -0.736344 0.862915 -1.167946
v 1.263656 0.069576 0.832054
v 1.263656 0.862915 0.832054
v 1.263656 0.069576 -1.167946
v 1.263656 0.862915 -1.167946
vn -1.0000 -0.0000 -0.0000
vn -0.0000 -0.0000 -1.0000
vn 1.0000 -0.0000 -0.0000
vn -0.0000 -0.0000 1.0000
vn -0.0000 -1.0000 -0.0000
vn -0.0000 1.0000 -0.0000
vt -1.238788 1.179245
vt -1.238788 -0.210495
vt 2.238788 -0.210496
vt 2.238788 1.179245
vt -1.292708 1.309325
vt -1.292708 -0.278075
vt 2.292708 -0.278075
vt 2.292708 1.309325
vt 0.125000 0.500000
vt 0.375000 0.500000
vt 0.375000 0.750000
vt 0.125000 0.750000
vt -2.749818 -2.749818
vt 3.749818 -2.749818
vt 3.749818 3.749818
vt -2.749818 3.749818
s 0
usemtl Material.006
f 43/29/35 47/30/35 45/31/35 41/32/35
f 48/33/36 44/34/36 42/35/36 46/36/36
usemtl Material.007
f 41/21/31 42/22/31 44/23/31 43/24/31
f 43/21/32 44/22/32 48/23/32 47/24/32
f 47/25/33 48/26/33 46/27/33 45/28/33
f 45/25/34 46/26/34 42/27/34 41/28/34
o Cube.006
v 2.548792 4.581261 -2.548792
v 2.548792 4.399203 -2.548792
v 2.548792 4.581261 2.548792
v 2.548792 4.399203 2.548792
v -2.548792 4.581261 -2.548792
v -2.548792 4.399203 -2.548792
v -2.548792 4.581261 2.548792
v -2.548792 4.399203 2.548792
vn -0.0000 1.0000 -0.0000
vn -0.0000 -0.0000 1.0000
vn -1.0000 -0.0000 -0.0000
vn -0.0000 -1.0000 -0.0000
vn 1.0000 -0.0000 -0.0000
vn -0.0000 -0.0000 -1.0000
vt -3.219331 -3.219331
vt 4.219331 -3.219331
vt 4.219331 4.219331
vt -3.219331 4.219331
s 0
usemtl Material.008
f 49/37/37 53/38/37 55/39/37 51/40/37
f 52/37/38 51/38/38 55/39/38 56/40/38
f 56/37/39 55/38/39 53/39/39 54/40/39
f 54/37/40 50/38/40 52/39/40 56/40/40
f 50/37/41 49/38/41 51/39/41 52/40/41
f 54/37/42 53/38/42 49/39/42 50/40/42
